<svg width="24" height="24" fill="#3670C7" xmlns="http://www.w3.org/2000/svg"><path d="M19 13.586V10c0-3.217-2.185-5.927-5.145-6.742A1.99 1.99 0 0 0 12 2a1.99 1.99 0 0 0-1.855 1.258C7.185 4.074 5 6.783 5 10v3.586l-1.707 1.707A.996.996 0 0 0 3 16v2a1 1 0 0 0 1 1h16a1 1 0 0 0 1-1v-2a.996.996 0 0 0-.293-.707L19 13.586ZM19 17H5v-.586l1.707-1.707A.996.996 0 0 0 7 14v-4c0-2.757 2.243-5 5-5s5 2.243 5 5v4c0 .266.105.52.293.707L19 16.414V17Zm-7 5a2.98 2.98 0 0 0 2.818-2H9.182A2.98 2.98 0 0 0 12 22Z"/></svg>