<svg width="31" height="30" fill="none" xmlns="http://www.w3.org/2000/svg"><path d="M9.5 24a2.996 2.996 0 0 0-2.985 3c0 1.65 1.335 3 2.985 3s3-1.35 3-3-1.35-3-3-3ZM.5 0v3h3l5.4 11.385-2.025 3.675A2.9 2.9 0 0 0 6.5 19.5c0 1.65 1.35 3 3 3h18v-3H10.13a.371.371 0 0 1-.375-.375l.045-.18 1.35-2.445h11.175a2.986 2.986 0 0 0 2.625-1.545l5.37-9.735c.12-.21.18-.465.18-.72 0-.825-.675-1.5-1.5-1.5H6.815l-1.41-3H.5Zm24 24a2.996 2.996 0 0 0-2.985 3c0 1.65 1.335 3 2.985 3s3-1.35 3-3-1.35-3-3-3Z" fill="#2D2D2D"/></svg>